<?xml version="1.0" standalone="no"?>
<!DOCTYPE svg PUBLIC "-//W3C//DTD SVG 20010904//EN"
 "http://www.w3.org/TR/2001/REC-SVG-20010904/DTD/svg10.dtd">
<svg version="1.0" xmlns="http://www.w3.org/2000/svg"
 width="512.000000pt" height="512.000000pt" viewBox="0 0 512.000000 512.000000"
 preserveAspectRatio="xMidYMid meet">
<metadata>
Created by potrace 1.11, written by Peter Selinger 2001-2013
</metadata>
<g transform="translate(0.000000,512.000000) scale(0.100000,-0.100000)"
fill="#000000" stroke="none">
<path d="M1587 5114 c-2 -3 40 -118 93 -257 l97 -252 -21 -39 c-11 -21 -25
-40 -31 -42 -5 -1 -62 -5 -125 -8 -238 -10 -408 -68 -575 -194 -80 -61 -286
-268 -365 -367 -76 -96 -193 -272 -248 -375 -95 -177 -196 -448 -228 -615 -2
-11 -8 -42 -14 -70 -60 -304 -56 -649 10 -976 85 -410 319 -853 618 -1164 401
-417 927 -679 1492 -743 86 -9 434 -9 536 1 283 27 628 138 909 291 239 131
494 336 654 526 25 30 49 57 52 60 3 3 37 48 76 100 130 176 242 380 317 577
34 91 83 250 92 300 3 15 9 44 14 63 8 31 20 100 37 210 9 64 12 484 3 550 -5
36 -12 83 -14 105 -3 22 -8 51 -11 65 -14 71 -18 90 -32 150 -14 62 -56 203
-72 245 -73 182 -126 293 -206 430 -157 267 -445 577 -653 703 -60 36 -233 97
-302 106 -25 4 -56 9 -70 11 -14 3 -69 6 -124 7 l-98 2 -29 43 -30 42 81 213
c45 117 90 234 100 260 l18 46 -36 -15 c-21 -8 -64 -28 -97 -43 -147 -68 -217
-100 -220 -100 -2 0 -47 -21 -102 -46 -114 -53 -105 -49 -336 -153 -99 -45
-181 -81 -184 -81 -6 0 -126 53 -233 102 -47 22 -125 58 -175 80 -49 22 -114
51 -143 65 -223 102 -422 190 -425 187z"/>
</g>
</svg>
